<svg width="32" height="32" viewBox="0 0 32 32" fill="none" xmlns="http://www.w3.org/2000/svg">
<path d="M12.0001 6.66671V7.17337C10.8935 6.73337 9.70679 6.50671 8.52012 6.50671C6.62679 6.50671 4.73345 7.08004 3.12012 8.22671C2.44012 8.70671 2.36012 9.68004 2.94679 10.2667L6.37345 13.6934H7.85345V15.1734C9.00012 16.32 10.4935 16.92 12.0001 16.9867V20H9.33345C8.60012 20 8.00012 20.6 8.00012 21.3334V24C8.00012 25.4667 9.20012 26.6667 10.6668 26.6667H24.0001C26.2135 26.6667 28.0001 24.88 28.0001 22.6667V6.66671C28.0001 5.93337 27.4001 5.33337 26.6668 5.33337H13.3335C12.6001 5.33337 12.0001 5.93337 12.0001 6.66671ZM10.5201 13.88V11.0134H7.48012L6.09345 9.62671C6.85345 9.33337 7.68012 9.17337 8.52012 9.17337C10.3068 9.17337 11.9735 9.86671 13.2401 11.12L15.1201 13L14.8535 13.2667C14.1735 13.9467 13.2668 14.3334 12.2935 14.3334C11.6668 14.3334 11.0535 14.1734 10.5201 13.88ZM25.3335 22.6667C25.3335 23.4 24.7335 24 24.0001 24C23.2668 24 22.6668 23.4 22.6668 22.6667V21.3334C22.6668 20.6 22.0668 20 21.3335 20H14.6668V16.5467C15.4268 16.24 16.1335 15.7867 16.7468 15.1734L17.0135 14.9067L20.7868 18.6667H22.6668V16.7867L14.6668 8.82671V8.00004H25.3335V22.6667Z" fill="black" fill-opacity="0.3"/>
</svg>
