<svg width="16" height="16" viewBox="0 0 16 16" fill="none" xmlns="http://www.w3.org/2000/svg">
<g clip-path="url(#clip0_1_1329)">
<g clip-path="url(#clip1_1_1329)">
<path d="M11.3974 12.229C11.3974 11.158 11.3974 10.0862 11.398 9.01516C11.398 8.90143 11.3943 8.78333 11.4212 8.67397C11.4805 8.43088 11.6455 8.3009 11.8986 8.31465C12.1523 8.32777 12.3067 8.47275 12.3298 8.72334C12.3498 8.94018 12.341 9.16014 12.341 9.37886C12.3416 10.3343 12.341 11.2892 12.341 12.3396C12.5797 12.1028 12.7585 11.9253 12.9372 11.7479C13.0259 11.6598 13.109 11.5648 13.2053 11.486C13.409 11.3198 13.6914 11.3298 13.8545 11.5098C14.0333 11.7079 14.0558 11.941 13.8733 12.1303C13.3177 12.7077 12.751 13.2751 12.1729 13.8307C11.9705 14.0256 11.7249 13.99 11.528 13.7969C10.9856 13.2645 10.4469 12.7283 9.91515 12.1847C9.69769 11.9622 9.70643 11.6804 9.90765 11.4917C10.0926 11.3179 10.372 11.3211 10.5794 11.526C10.8288 11.7716 11.0593 12.0359 11.2981 12.2928C11.3312 12.2715 11.3637 12.2503 11.3968 12.229H11.3974Z" fill="#A36B00"/>
<path d="M12.0897 2H2.74988C2.33573 2 2 2.33573 2 2.74988C2 3.16403 2.33573 3.49977 2.74988 3.49977H12.0897C12.5038 3.49977 12.8396 3.16403 12.8396 2.74988C12.8396 2.33573 12.5038 2 12.0897 2Z" fill="#A36B00"/>
<path d="M9.71504 5.49255H2.74988C2.33573 5.49255 2 5.82829 2 6.24244C2 6.65659 2.33573 6.99232 2.74988 6.99232H9.71504C10.1292 6.99232 10.4649 6.65659 10.4649 6.24244C10.4649 5.82829 10.1292 5.49255 9.71504 5.49255Z" fill="#A36B00"/>
<path d="M7.34042 8.98578H2.74988C2.33573 8.98578 2 9.32151 2 9.73566C2 10.1498 2.33573 10.4855 2.74988 10.4855H7.34042C7.75456 10.4855 8.0903 10.1498 8.0903 9.73566C8.0903 9.32151 7.75456 8.98578 7.34042 8.98578Z" fill="#A36B00"/>
<path d="M5.46571 12.4784H2.74988C2.33573 12.4784 2 12.8141 2 13.2283C2 13.6424 2.33573 13.9782 2.74988 13.9782H5.46571C5.87986 13.9782 6.21559 13.6424 6.21559 13.2283C6.21559 12.8141 5.87986 12.4784 5.46571 12.4784Z" fill="#A36B00"/>
</g>
</g>
<defs>
<clipPath id="clip0_1_1329">
<rect width="16" height="16" fill="white"/>
</clipPath>
<clipPath id="clip1_1_1329">
<rect width="12" height="11.9781" fill="white" transform="translate(2 2)"/>
</clipPath>
</defs>
</svg>
