<svg width="24" height="24" viewBox="0 0 24 24" fill="none" xmlns="http://www.w3.org/2000/svg">
<g clip-path="url(#clip0_25_1075)">
<g clip-path="url(#clip1_25_1075)">
<path d="M14.823 5.39577C15.4108 5.39577 15.9993 5.39577 16.5871 5.39732C18.4148 5.4012 19.5934 6.5814 19.595 8.40675C19.5965 10.3802 19.5678 12.3545 19.6043 14.3271C19.6314 15.809 18.7878 16.9349 17.6293 17.2994C17.5417 17.3265 17.4494 17.4917 17.444 17.5979C17.4215 17.9887 17.437 18.3819 17.4346 18.7742C17.4323 19.117 17.3501 19.4194 16.9895 19.5574C16.9089 19.5884 16.8337 19.6024 16.7631 19.6024C16.5414 19.6024 16.3638 19.4659 16.194 19.2945C15.6512 18.7448 15.1107 18.1911 14.5493 17.6615C14.4244 17.5436 14.2151 17.4544 14.0445 17.4529C11.8291 17.4389 9.61291 17.4498 7.39673 17.4413C6.1165 17.4366 5.14955 16.8977 4.62225 15.6965C4.50904 15.4391 4.42375 15.1444 4.42219 14.8661C4.40514 12.5817 4.37412 10.2957 4.42297 8.01284C4.45476 6.55581 5.66831 5.45005 7.13619 5.4012C7.17108 5.40042 7.2052 5.3981 7.2401 5.3981C8.83283 5.3981 10.4256 5.3981 12.0183 5.3981C12.9534 5.3981 13.8894 5.39732 14.8246 5.39732M14.8246 4.00155C14.357 4.00155 13.8886 4.00155 13.421 4.00155C12.9534 4.00155 12.4859 4.00155 12.0183 4.00155C10.835 4.00155 9.65168 4.00155 8.46915 4.00155H7.24087C7.18814 4.00155 7.14395 4.0031 7.11138 4.00465H7.09044C6.03198 4.04032 5.03478 4.45207 4.28184 5.16469C3.49556 5.90833 3.04969 6.90863 3.0272 7.9826C2.98455 9.94133 3.00084 11.9241 3.01712 13.8417C3.02022 14.1868 3.02255 14.5319 3.02565 14.8761C3.02875 15.3197 3.13576 15.7842 3.34357 16.2572C4.07093 17.9135 5.50779 18.8293 7.39053 18.8363C8.3761 18.8401 9.3764 18.8401 10.3441 18.8401C11.4677 18.8401 12.627 18.8401 13.77 18.8463C14.1848 19.2449 14.5981 19.6636 14.9998 20.0715L15.2006 20.2747C15.3774 20.4538 15.9148 20.9974 16.7623 20.9974C17.0066 20.9974 17.2509 20.9508 17.4881 20.8601C17.8883 20.7066 18.8211 20.1971 18.8296 18.782C18.8304 18.6471 18.8296 18.5152 18.8281 18.3873C18.8281 18.3555 18.8281 18.3245 18.8281 18.2935C19.3748 17.9872 19.8447 17.5568 20.2122 17.0225C20.7465 16.2456 21.0187 15.305 21.0008 14.3008C20.976 12.967 20.9822 11.6023 20.9869 10.2825C20.9892 9.6676 20.9923 9.03252 20.9915 8.4052C20.9908 7.13195 20.5658 6.03472 19.764 5.23215C18.9615 4.42959 17.8642 4.00388 16.5902 4.00155C16.0009 4 15.4123 4 14.823 4L14.8246 4.00155Z" fill="#999999"/>
<path d="M15.6959 8.31836H8.30454C7.79063 8.31836 7.37402 8.73496 7.37402 9.24887C7.37402 9.76278 7.79063 10.1794 8.30454 10.1794H15.6959C16.2098 10.1794 16.6264 9.76278 16.6264 9.24887C16.6264 8.73496 16.2098 8.31836 15.6959 8.31836Z" fill="#999999"/>
<path d="M12.3616 12.2731H8.30454C7.79063 12.2731 7.37402 12.6897 7.37402 13.2036C7.37402 13.7175 7.79063 14.1341 8.30454 14.1341H12.3616C12.8755 14.1341 13.2921 13.7175 13.2921 13.2036C13.2921 12.6897 12.8755 12.2731 12.3616 12.2731Z" fill="#999999"/>
</g>
</g>
<defs>
<clipPath id="clip0_25_1075">
<rect width="24" height="24" fill="white"/>
</clipPath>
<clipPath id="clip1_25_1075">
<rect width="18" height="16.9981" fill="white" transform="translate(3 4)"/>
</clipPath>
</defs>
</svg>
