<svg width="32" height="32" viewBox="0 0 32 32" fill="none" xmlns="http://www.w3.org/2000/svg">
<circle cx="16" cy="16" r="16" fill="white"/>
<g clip-path="url(#clip0_428_713)">
<path d="M13.1213 14.8787C14.2929 16.0503 14.2929 17.9497 13.1213 19.1213C11.9497 20.2929 10.0503 20.2929 8.87868 19.1213C7.70711 17.9497 7.70711 16.0503 8.87868 14.8787C10.0503 13.7071 11.9497 13.7071 13.1213 14.8787" stroke="#A36B00" strokeWidth="2" stroke-linecap="round" stroke-linejoin="round"/>
<path d="M22.1213 8.87868C23.2929 10.0503 23.2929 11.9497 22.1213 13.1213C20.9497 14.2929 19.0503 14.2929 17.8787 13.1213C16.7071 11.9497 16.7071 10.0503 17.8787 8.87868C19.0503 7.70711 20.9497 7.70711 22.1213 8.87868" stroke="#A36B00" strokeWidth="2" stroke-linecap="round" stroke-linejoin="round"/>
<path d="M22.1213 19.8787C23.2929 21.0503 23.2929 22.9497 22.1213 24.1213C20.9497 25.2929 19.0503 25.2929 17.8787 24.1213C16.7071 22.9497 16.7071 21.0503 17.8787 19.8787C19.0503 18.7071 20.9497 18.7071 22.1213 19.8787" stroke="#A36B00" strokeWidth="2" stroke-linecap="round" stroke-linejoin="round"/>
<path d="M14 15L17 13" stroke="#A36B00" strokeWidth="2" stroke-linecap="round" stroke-linejoin="round"/>
<path d="M14 19L17 21" stroke="#A36B00" strokeWidth="2" stroke-linecap="round" stroke-linejoin="round"/>
</g>
<defs>
<clipPath id="clip0_428_713">
<rect width="24" height="24" fill="white" transform="translate(3 4)"/>
</clipPath>
</defs>
</svg>
