<svg width="24" height="24" viewBox="0 0 24 24" fill="none" xmlns="http://www.w3.org/2000/svg">
<g clip-path="url(#clip0_10_1042)">
<g clip-path="url(#clip1_10_1042)">
<path d="M12.0092 3H12.0004C7.04426 3 3.00798 7.02673 3.00001 11.9797C2.99205 16.9382 7.01559 20.9849 11.9678 20.9992C11.9773 20.9992 11.9861 20.9992 11.9956 20.9992C14.3913 20.9992 16.6468 20.0658 18.3487 18.3694C20.0562 16.6667 20.9968 14.4048 20.9976 12.0004C20.9976 7.04186 16.9661 3.00399 12.01 2.99921L12.0092 3ZM19.2662 11.2796C18.9691 11.2868 18.6617 11.294 18.4722 11.4947C18.3559 11.6189 18.3033 11.7965 18.3121 12.0394C18.3376 12.7307 18.8807 12.7236 19.3172 12.7196C19.3713 12.7196 19.4231 12.718 19.4733 12.7196C19.4096 15.7229 16.6499 19.2041 12.722 19.4995C12.7196 19.4398 12.7196 19.3769 12.7188 19.3116C12.7172 18.9994 12.7156 18.676 12.5085 18.4785C12.393 18.3678 12.2298 18.3145 12.0116 18.3145C11.9916 18.3145 11.9717 18.3145 11.9502 18.3161C11.2796 18.3447 11.2781 18.8696 11.2773 19.2909C11.2773 19.357 11.2773 19.4215 11.2749 19.482C8.22934 19.3594 4.74179 16.5846 4.50844 12.7315C4.58251 12.7251 4.66215 12.7236 4.74418 12.722C5.16947 12.7124 5.69989 12.6997 5.68715 11.9829C5.6752 11.2948 5.15434 11.2868 4.73701 11.2804C4.65896 11.2788 4.5833 11.278 4.51242 11.2733C4.70038 7.80483 7.82396 4.67568 11.2565 4.51719C11.3808 5.3845 11.5194 5.70864 11.9837 5.70864C11.9996 5.70864 12.0155 5.70864 12.0323 5.70785C12.5396 5.68555 12.6614 5.34149 12.7331 4.53392C14.0934 4.53551 15.7062 5.20769 16.9613 6.29879C18.4435 7.58821 19.3442 9.3507 19.5019 11.2701C19.4279 11.2757 19.3482 11.278 19.2662 11.2796Z" fill="#A36B00"/>
<path d="M14.7336 8.21736C14.4397 8.33683 14.1458 8.45868 13.8527 8.57974C12.9751 8.9437 12.0672 9.31961 11.1553 9.63022C10.3588 9.901 9.90168 10.3574 9.62692 11.1578C9.34498 11.9765 9.01048 12.7944 8.68793 13.5845C8.51829 13.9986 8.34387 14.4271 8.17822 14.8508C8.07468 15.1152 8.0938 15.3828 8.23078 15.5851C8.36617 15.7866 8.59634 15.8989 8.87828 15.9021H8.89022L8.90217 15.8989C8.91571 15.8949 8.93243 15.8901 8.95314 15.8853C9.01606 15.8686 9.10207 15.8463 9.18729 15.8121C9.49232 15.6902 9.79815 15.5684 10.104 15.4473C11.219 15.0037 12.3722 14.545 13.4967 14.0703C13.7357 13.9691 13.9778 13.7199 14.0853 13.4634C14.4756 12.538 14.8539 11.5902 15.2202 10.6743C15.4082 10.2044 15.5953 9.73535 15.7849 9.26625C15.9107 8.95644 15.9872 8.62832 15.7012 8.33125C15.393 8.01109 15.0394 8.09471 14.7344 8.21896L14.7336 8.21736ZM12.8277 12.7251C12.8078 12.7729 12.7417 12.8311 12.6756 12.8581C11.9883 13.1369 11.297 13.4108 10.5659 13.7007L10.1167 13.8791L10.3102 13.3933C10.5922 12.6837 10.859 12.0139 11.1322 11.3481C11.1664 11.2637 11.2492 11.1753 11.3193 11.1466C11.9987 10.8679 12.6812 10.5971 13.4044 10.3104L13.8735 10.124L13.7038 10.5485C13.4028 11.3019 13.1192 12.0131 12.8277 12.7243V12.7251Z" fill="#A36B00"/>
</g>
</g>
<defs>
<clipPath id="clip0_10_1042">
<rect width="24" height="24" fill="white"/>
</clipPath>
<clipPath id="clip1_10_1042">
<rect width="17.9968" height="18" fill="white" transform="translate(3 3)"/>
</clipPath>
</defs>
</svg>
