<svg width="16" height="16" viewBox="0 0 16 16" fill="none" xmlns="http://www.w3.org/2000/svg">
<g clip-path="url(#clip0_1_1335)">
<g clip-path="url(#clip1_1_1335)">
<path d="M7.45339 8.49683C7.43803 9.24363 6.92822 9.88089 6.20804 10.0524C5.47045 10.2274 4.71853 9.89727 4.37661 9.22162C4.29266 9.05578 4.20104 9.00664 4.02752 9.01073C3.56736 9.02097 3.1072 9.01636 2.64704 9.01329C2.23704 9.01022 1.99596 8.79934 2.00005 8.45434C2.00415 8.12061 2.24216 7.91638 2.63885 7.91331C3.09031 7.90973 3.54228 7.90461 3.99374 7.91587C4.1821 7.92048 4.2901 7.87697 4.38531 7.68963C4.72979 7.01193 5.5114 6.68588 6.2495 6.8814C6.97019 7.07233 7.46823 7.74081 7.45288 8.49683H7.45339Z" fill="#A36B00"/>
<path d="M12.6766 12.8272C12.6085 12.8272 12.5394 12.8333 12.4718 12.8261C12.0342 12.7796 11.7086 12.8354 11.4368 13.296C11.0755 13.9082 10.2386 14.0715 9.56652 13.8002C8.88319 13.5248 8.48957 12.864 8.55611 12.1049C8.61702 11.4134 9.16061 10.8181 9.86032 10.6768C10.5534 10.5371 11.2853 10.8667 11.6078 11.5014C11.7066 11.6954 11.8146 11.7482 12.0147 11.7425C12.4749 11.7297 12.9356 11.7359 13.3957 11.7395C13.7663 11.742 14.0002 11.9575 13.9997 12.2861C13.9992 12.6173 13.7725 12.821 13.3921 12.8266C13.1536 12.8302 12.9146 12.8272 12.6761 12.8277L12.6766 12.8272Z" fill="#A36B00"/>
<path d="M12.3595 6.27438C11.4642 6.27284 10.7328 5.54652 10.7261 4.65281C10.72 3.75501 11.4627 3.00463 12.3625 3.00002C13.2665 2.99541 14.0005 3.73095 14.0005 4.64206C14.0005 5.55624 13.2772 6.27591 12.36 6.27387L12.3595 6.27438Z" fill="#A36B00"/>
<path d="M5.82411 4.09948C6.8985 4.09948 7.97289 4.09539 9.04728 4.10153C9.51103 4.10409 9.7818 4.52995 9.56733 4.90566C9.43834 5.13139 9.23002 5.19076 8.98125 5.19025C6.98603 5.18616 4.9903 5.1882 2.99507 5.1882C2.85841 5.1882 2.72225 5.19076 2.58559 5.18769C2.23292 5.1795 2.00258 4.96555 2.00002 4.64666C1.99746 4.32265 2.2191 4.10255 2.57484 4.10102C3.65793 4.09641 4.74102 4.09948 5.8236 4.09948H5.82411Z" fill="#A36B00"/>
<path d="M11.2841 7.91231C11.9823 7.91231 12.6804 7.90975 13.3786 7.91334C13.7349 7.91538 13.9652 8.10068 13.9964 8.39448C14.0348 8.75432 13.7917 9.00922 13.3878 9.01178C12.596 9.01741 11.8041 9.01383 11.0128 9.01383C10.4083 9.01383 9.80379 9.01588 9.19929 9.01281C8.78929 9.01076 8.5482 8.79936 8.5523 8.45437C8.55639 8.12064 8.79338 7.91436 9.18956 7.91283C9.88774 7.90975 10.5859 7.9118 11.2841 7.9118V7.91231Z" fill="#A36B00"/>
<path d="M4.71132 12.8272C4.02031 12.8272 3.3293 12.8287 2.63829 12.8267C2.23341 12.8251 2.00359 12.6291 2.00052 12.2907C1.99745 11.9452 2.23853 11.739 2.6516 11.739C4.05051 11.7379 5.44993 11.7364 6.84884 11.74C7.32486 11.741 7.60383 12.1781 7.37861 12.5595C7.2573 12.7652 7.06638 12.8302 6.83604 12.8287C6.12814 12.8246 5.41973 12.8272 4.71183 12.8272H4.71132Z" fill="#A36B00"/>
</g>
</g>
<defs>
<clipPath id="clip0_1_1335">
<rect width="16" height="16" fill="white"/>
</clipPath>
<clipPath id="clip1_1_1335">
<rect width="12" height="10.9271" fill="white" transform="translate(2 3)"/>
</clipPath>
</defs>
</svg>
