<svg width="25" height="24" viewBox="0 0 25 24" fill="none" xmlns="http://www.w3.org/2000/svg">
<g clip-path="url(#clip0_213_516)">
<path d="M10.886 16.133L11.953 15.572C12.25 15.416 12.605 15.416 12.902 15.572L13.969 16.133C14.313 16.314 14.729 16.284 15.043 16.055L15.441 15.766C15.755 15.538 15.912 15.151 15.847 14.769L15.643 13.581C15.586 13.25 15.696 12.913 15.936 12.678L16.799 11.837C17.077 11.566 17.177 11.161 17.057 10.792L16.905 10.324C16.785 9.955 16.466 9.686 16.082 9.63L14.889 9.457C14.557 9.409 14.27 9.2 14.121 8.899L13.587 7.818C13.416 7.47 13.061 7.25 12.673 7.25H12.181C11.793 7.25 11.438 7.47 11.267 7.818L10.734 8.899C10.585 9.2 10.298 9.409 9.96602 9.457L8.77302 9.63C8.38902 9.686 8.07002 9.955 7.95002 10.324L7.79802 10.792C7.67802 11.161 7.77803 11.566 8.05603 11.837L8.91902 12.678C9.15902 12.912 9.26902 13.25 9.21202 13.581L9.00803 14.769C8.94203 15.152 9.10003 15.538 9.41403 15.766L9.81203 16.055C10.126 16.283 10.542 16.313 10.886 16.133Z" stroke="#999999" stroke-width="1.5" stroke-linecap="round" stroke-linejoin="round"/>
<path d="M17.4268 21H7.42676C5.21776 21 3.42676 19.209 3.42676 17V7C3.42676 4.791 5.21776 3 7.42676 3H17.4268C19.6358 3 21.4268 4.791 21.4268 7V17C21.4268 19.209 19.6358 21 17.4268 21Z" stroke="#999999" stroke-width="1.5" stroke-linecap="round" stroke-linejoin="round"/>
</g>
<defs>
<clipPath id="clip0_213_516">
<rect width="24" height="24" fill="white" transform="translate(0.426758)"/>
</clipPath>
</defs>
</svg>
