<svg width="14" height="15" viewBox="0 0 14 15" fill="none" xmlns="http://www.w3.org/2000/svg">
<path d="M6.17513 1.20359C6.57233 0.624015 7.42766 0.624014 7.82487 1.20359L9.62034 3.82339C9.75037 4.01312 9.94183 4.15223 10.1625 4.21727L13.2089 5.11529C13.8828 5.31396 14.1471 6.12743 13.7187 6.68429L11.7819 9.20145C11.6417 9.38375 11.5685 9.60882 11.5748 9.83875L11.6622 13.0136C11.6815 13.7159 10.9895 14.2187 10.3275 13.9833L7.33505 12.9191C7.11833 12.8421 6.88167 12.8421 6.66495 12.9191L3.6725 13.9833C3.01049 14.2187 2.31852 13.7159 2.33783 13.0136L2.42515 9.83875C2.43148 9.60882 2.35834 9.38375 2.21808 9.20145L0.281328 6.68429C-0.147135 6.12743 0.117176 5.31396 0.791126 5.11529L3.83754 4.21727C4.05817 4.15223 4.24963 4.01312 4.37966 3.82339L6.17513 1.20359Z" fill="#F0B51E"/>
</svg>
