<svg width="25" height="24" viewBox="0 0 25 24" fill="none" xmlns="http://www.w3.org/2000/svg">
<g clip-path="url(#clip0_210_384)">
<path d="M10.8855 16.133L11.9525 15.572C12.2495 15.416 12.6045 15.416 12.9015 15.572L13.9685 16.133C14.3125 16.314 14.7285 16.284 15.0425 16.055L15.4405 15.766C15.7545 15.538 15.9115 15.151 15.8465 14.769L15.6425 13.581C15.5855 13.25 15.6955 12.913 15.9355 12.678L16.7985 11.837C17.0765 11.566 17.1765 11.161 17.0565 10.792L16.9045 10.324C16.7845 9.955 16.4655 9.686 16.0815 9.63L14.8885 9.457C14.5565 9.409 14.2695 9.2 14.1205 8.899L13.5865 7.818C13.4155 7.47 13.0605 7.25 12.6725 7.25H12.1805C11.7925 7.25 11.4375 7.47 11.2665 7.818L10.7335 8.899C10.5845 9.2 10.2975 9.409 9.96554 9.457L8.77254 9.63C8.38854 9.686 8.06954 9.955 7.94954 10.324L7.79754 10.792C7.67754 11.161 7.77754 11.566 8.05554 11.837L8.91854 12.678C9.15854 12.912 9.26854 13.25 9.21154 13.581L9.00754 14.769C8.94154 15.152 9.09954 15.538 9.41354 15.766L9.81154 16.055C10.1255 16.283 10.5415 16.313 10.8855 16.133Z" stroke="#A36B00" strokeWidth="1.5" stroke-linecap="round" stroke-linejoin="round"/>
<path d="M17.4268 21H7.42676C5.21776 21 3.42676 19.209 3.42676 17V7C3.42676 4.791 5.21776 3 7.42676 3H17.4268C19.6358 3 21.4268 4.791 21.4268 7V17C21.4268 19.209 19.6358 21 17.4268 21Z" stroke="#A36B00" strokeWidth="1.5" stroke-linecap="round" stroke-linejoin="round"/>
</g>
<defs>
<clipPath id="clip0_210_384">
<rect width="24" height="24" fill="white" transform="translate(0.426758)"/>
</clipPath>
</defs>
</svg>
