<svg width="15" height="14" viewBox="0 0 15 14" fill="none" xmlns="http://www.w3.org/2000/svg">
  <g clip-path="url(#clip0_6304_6243)">
    <rect x="1.45142" y="1" width="12" height="12" rx="6" fill="url(#paint0_radial_6304_6243)" />
    <g clip-path="url(#clip1_6304_6243)">
      <mask id="path-3-outside-1_6304_6243" maskUnits="userSpaceOnUse" x="3.95154" y="4.00012"
        width="7" height="6" fill="black">
        <rect fill="white" x="3.95154" y="4.00012" width="7" height="6" />
        <path
          d="M9.36411 5.11734C9.39248 5.08399 9.42714 5.05655 9.46611 5.03658C9.50508 5.01662 9.5476 5.00453 9.59124 5.001C9.63489 4.99748 9.6788 5.00258 9.72047 5.01602C9.76214 5.02946 9.80076 5.05098 9.83411 5.07934C9.86747 5.10771 9.89491 5.14237 9.91487 5.18134C9.93483 5.22031 9.94692 5.26283 9.95045 5.30647C9.95398 5.35012 9.94888 5.39403 9.93544 5.4357C9.922 5.47737 9.90048 5.51599 9.87211 5.54934L7.03878 8.88268C7.01003 8.91649 6.97482 8.94423 6.93522 8.96426C6.89561 8.98428 6.8524 8.9962 6.80812 8.99931C6.76385 9.00241 6.7194 8.99664 6.67738 8.98234C6.63537 8.96803 6.59663 8.94548 6.56345 8.91601L5.06345 7.58268C5.02979 7.55388 5.0022 7.51867 4.98231 7.47909C4.96241 7.43951 4.95061 7.39636 4.94758 7.35217C4.94455 7.30798 4.95036 7.26362 4.96467 7.2217C4.97898 7.17978 5.0015 7.14113 5.03092 7.10801C5.06034 7.07489 5.09607 7.04797 5.13601 7.02882C5.17595 7.00967 5.21931 6.99867 5.26355 6.99646C5.30779 6.99426 5.35203 7.0009 5.39368 7.01598C5.43533 7.03107 5.47355 7.05431 5.50611 7.08434L6.75145 8.19101L9.36411 5.11768V5.11734Z" />
      </mask>
      <path
        d="M9.36411 5.11734C9.39248 5.08399 9.42714 5.05655 9.46611 5.03658C9.50508 5.01662 9.5476 5.00453 9.59124 5.001C9.63489 4.99748 9.6788 5.00258 9.72047 5.01602C9.76214 5.02946 9.80076 5.05098 9.83411 5.07934C9.86747 5.10771 9.89491 5.14237 9.91487 5.18134C9.93483 5.22031 9.94692 5.26283 9.95045 5.30647C9.95398 5.35012 9.94888 5.39403 9.93544 5.4357C9.922 5.47737 9.90048 5.51599 9.87211 5.54934L7.03878 8.88268C7.01003 8.91649 6.97482 8.94423 6.93522 8.96426C6.89561 8.98428 6.8524 8.9962 6.80812 8.99931C6.76385 9.00241 6.7194 8.99664 6.67738 8.98234C6.63537 8.96803 6.59663 8.94548 6.56345 8.91601L5.06345 7.58268C5.02979 7.55388 5.0022 7.51867 4.98231 7.47909C4.96241 7.43951 4.95061 7.39636 4.94758 7.35217C4.94455 7.30798 4.95036 7.26362 4.96467 7.2217C4.97898 7.17978 5.0015 7.14113 5.03092 7.10801C5.06034 7.07489 5.09607 7.04797 5.13601 7.02882C5.17595 7.00967 5.21931 6.99867 5.26355 6.99646C5.30779 6.99426 5.35203 7.0009 5.39368 7.01598C5.43533 7.03107 5.47355 7.05431 5.50611 7.08434L6.75145 8.19101L9.36411 5.11768V5.11734Z"
        fill="white" />
      <path
        d="M9.36411 5.11734L8.83086 4.66387L8.66411 4.85995V5.11734H9.36411ZM9.59124 5.001L9.64765 5.69873L9.59124 5.001ZM9.87211 5.54934L9.33886 5.09587L9.33876 5.09599L9.87211 5.54934ZM7.03878 8.88268L7.57213 9.33604L7.57214 9.33603L7.03878 8.88268ZM6.56345 8.91601L6.09839 9.4392L6.09859 9.43938L6.56345 8.91601ZM5.06345 7.58268L5.52859 7.0594L5.51849 7.05076L5.06345 7.58268ZM5.50611 7.08434L5.03147 7.59901L5.04113 7.60759L5.50611 7.08434ZM6.75145 8.19101L6.28646 8.71426L6.82132 9.18957L7.28478 8.6444L6.75145 8.19101ZM9.36411 5.11768L9.89744 5.57107L10.0641 5.37501V5.11768H9.36411ZM9.89737 5.57082C9.86618 5.6075 9.82807 5.63766 9.78523 5.65961L9.14698 4.41356C9.0262 4.47543 8.91878 4.56048 8.83086 4.66387L9.89737 5.57082ZM9.78523 5.65961C9.74239 5.68155 9.69564 5.69485 9.64765 5.69873L9.53483 4.30328C9.39956 4.31422 9.26777 4.35169 9.14698 4.41356L9.78523 5.65961ZM9.64765 5.69873C9.59967 5.70261 9.55139 5.697 9.50558 5.68222L9.93536 4.34982C9.8062 4.30816 9.6701 4.29234 9.53483 4.30328L9.64765 5.69873ZM9.50558 5.68222C9.45976 5.66744 9.41731 5.64378 9.38064 5.6126L10.2876 4.54609C10.1842 4.45818 10.0645 4.39148 9.93536 4.34982L9.50558 5.68222ZM9.38064 5.6126C9.34397 5.58141 9.3138 5.54331 9.29185 5.50046L10.5379 4.86221C10.476 4.74143 10.391 4.63401 10.2876 4.54609L9.38064 5.6126ZM9.29185 5.50046C9.2699 5.45762 9.25661 5.41087 9.25273 5.36289L10.6482 5.25006C10.6372 5.11479 10.5998 4.983 10.5379 4.86221L9.29185 5.50046ZM9.25273 5.36289C9.24885 5.3149 9.25446 5.26663 9.26924 5.22081L10.6016 5.65059C10.6433 5.52143 10.6591 5.38533 10.6482 5.25006L9.25273 5.36289ZM9.26924 5.22081C9.28402 5.175 9.30767 5.13254 9.33886 5.09587L10.4054 6.00282C10.4933 5.89944 10.56 5.77975 10.6016 5.65059L9.26924 5.22081ZM9.33876 5.09599L6.50542 8.42932L7.57214 9.33603L10.4055 6.0027L9.33876 5.09599ZM6.50543 8.42931C6.53705 8.39211 6.57578 8.3616 6.61935 8.33957L7.25108 9.58894C7.37386 9.52686 7.48302 9.44088 7.57213 9.33604L6.50543 8.42931ZM6.61935 8.33957C6.66292 8.31754 6.71045 8.30444 6.75916 8.30102L6.85709 9.69759C6.99435 9.68797 7.12829 9.65103 7.25108 9.58894L6.61935 8.33957ZM6.75916 8.30102C6.80786 8.2976 6.85675 8.30395 6.90297 8.31968L6.4518 9.64499C6.58205 9.68933 6.71984 9.70722 6.85709 9.69759L6.75916 8.30102ZM6.90297 8.31968C6.94919 8.33542 6.9918 8.36022 7.0283 8.39264L6.09859 9.43938C6.20146 9.53075 6.32155 9.60065 6.4518 9.64499L6.90297 8.31968ZM7.0285 8.39282L5.5285 7.05949L4.59839 8.10586L6.09839 9.4392L7.0285 8.39282ZM5.51849 7.05076C5.55552 7.08243 5.58586 7.12117 5.60774 7.16471L4.35688 7.79347C4.41855 7.91616 4.50406 8.02533 4.60841 8.1146L5.51849 7.05076ZM5.60774 7.16471C5.62962 7.20824 5.64261 7.2557 5.64594 7.30432L4.24922 7.40002C4.2586 7.53702 4.2952 7.67078 4.35688 7.79347L5.60774 7.16471ZM5.64594 7.30432C5.64927 7.35293 5.64288 7.40172 5.62714 7.44783L4.3022 6.99557C4.25784 7.12553 4.23983 7.26302 4.24922 7.40002L5.64594 7.30432ZM5.62714 7.44783C5.6114 7.49395 5.58662 7.53646 5.55426 7.57289L4.50758 6.64313C4.41639 6.74579 4.34657 6.86561 4.3022 6.99557L5.62714 7.44783ZM5.55426 7.57289C5.5219 7.60932 5.48261 7.63894 5.43867 7.66L4.83335 6.39763C4.70953 6.45701 4.59878 6.54046 4.50758 6.64313L5.55426 7.57289ZM5.43867 7.66C5.39474 7.68107 5.34704 7.69317 5.29837 7.6956L5.22873 6.29733C5.09158 6.30416 4.95716 6.33826 4.83335 6.39763L5.43867 7.66ZM5.29837 7.6956C5.2497 7.69802 5.20104 7.69072 5.15523 7.67412L5.63213 6.35785C5.50302 6.31107 5.36589 6.2905 5.22873 6.29733L5.29837 7.6956ZM5.15523 7.67412C5.10942 7.65752 5.06737 7.63196 5.03155 7.59892L5.98067 6.56976C5.87973 6.47667 5.76124 6.40463 5.63213 6.35785L5.15523 7.67412ZM5.04113 7.60759L6.28646 8.71426L7.21643 7.66776L5.9711 6.5611L5.04113 7.60759ZM7.28478 8.6444L9.89744 5.57107L8.83078 4.66429L6.21812 7.73762L7.28478 8.6444ZM10.0641 5.11768V5.11734H8.66411V5.11768H10.0641Z"
        fill="white" mask="url(#path-3-outside-1_6304_6243)" />
    </g>
  </g>
  <rect x="0.951416" y="0.5" width="13" height="13" rx="6.5" stroke="white" strokeOpacity="0.4" />
  <defs>
    <radialGradient id="paint0_radial_6304_6243" cx="0" cy="0" r="1" gradientUnits="userSpaceOnUse"
      gradientTransform="translate(5.95142 5.5) rotate(44.9979) scale(10.6066 8.76048)">
      <stop stopColor="#75D685" />
      <stop offset="1" stopColor="#37A45C" />
    </radialGradient>
    <clipPath id="clip0_6304_6243">
      <rect x="1.45142" y="1" width="12" height="12" rx="6" fill="white" />
    </clipPath>
    <clipPath id="clip1_6304_6243">
      <rect width="8" height="8" fill="white" transform="translate(3.45142 3)" />
    </clipPath>
  </defs>
</svg>