<svg width="14" height="14" viewBox="0 0 14 14" fill="none" xmlns="http://www.w3.org/2000/svg">
  <g clip-path="url(#clip0_7236_7732)">
    <rect x="1" y="1" width="12" height="12" rx="6" fill="url(#paint0_radial_7236_7732)" />
    <g clip-path="url(#clip1_7236_7732)">
      <mask id="path-3-outside-1_7236_7732" maskUnits="userSpaceOnUse" x="3.5" y="4.00011" width="7"
        height="6" fill="black">
        <rect fill="white" x="3.5" y="4.00011" width="7" height="6" />
        <path
          d="M8.91258 5.11734C8.94094 5.08398 8.9756 5.05654 9.01457 5.03658C9.05354 5.01662 9.09606 5.00452 9.13971 5.001C9.18335 4.99747 9.22726 5.00257 9.26893 5.01601C9.3106 5.02945 9.34922 5.05097 9.38258 5.07934C9.41593 5.1077 9.44337 5.14236 9.46333 5.18133C9.4833 5.2203 9.49539 5.26282 9.49892 5.30647C9.50244 5.35011 9.49734 5.39402 9.4839 5.43569C9.47046 5.47736 9.44894 5.51598 9.42058 5.54934L6.58724 8.88267C6.5585 8.91649 6.52329 8.94422 6.48368 8.96425C6.44407 8.98428 6.40086 8.99619 6.35659 8.9993C6.31231 9.0024 6.26786 8.99663 6.22585 8.98233C6.18383 8.96803 6.14509 8.94548 6.11191 8.916L4.61191 7.58267C4.57825 7.55387 4.55066 7.51866 4.53077 7.47908C4.51088 7.4395 4.49907 7.39635 4.49604 7.35216C4.49301 7.30797 4.49882 7.26361 4.51313 7.22169C4.52744 7.17977 4.54997 7.14112 4.57939 7.108C4.6088 7.07489 4.64453 7.04796 4.68447 7.02881C4.72441 7.00966 4.76777 6.99866 4.81201 6.99645C4.85626 6.99425 4.90049 7.00089 4.94214 7.01598C4.98379 7.03107 5.02201 7.05431 5.05458 7.08434L6.29991 8.191L8.91258 5.11767V5.11734Z" />
      </mask>
      <path
        d="M8.91258 5.11734C8.94094 5.08398 8.9756 5.05654 9.01457 5.03658C9.05354 5.01662 9.09606 5.00452 9.13971 5.001C9.18335 4.99747 9.22726 5.00257 9.26893 5.01601C9.3106 5.02945 9.34922 5.05097 9.38258 5.07934C9.41593 5.1077 9.44337 5.14236 9.46333 5.18133C9.4833 5.2203 9.49539 5.26282 9.49892 5.30647C9.50244 5.35011 9.49734 5.39402 9.4839 5.43569C9.47046 5.47736 9.44894 5.51598 9.42058 5.54934L6.58724 8.88267C6.5585 8.91649 6.52329 8.94422 6.48368 8.96425C6.44407 8.98428 6.40086 8.99619 6.35659 8.9993C6.31231 9.0024 6.26786 8.99663 6.22585 8.98233C6.18383 8.96803 6.14509 8.94548 6.11191 8.916L4.61191 7.58267C4.57825 7.55387 4.55066 7.51866 4.53077 7.47908C4.51088 7.4395 4.49907 7.39635 4.49604 7.35216C4.49301 7.30797 4.49882 7.26361 4.51313 7.22169C4.52744 7.17977 4.54997 7.14112 4.57939 7.108C4.6088 7.07489 4.64453 7.04796 4.68447 7.02881C4.72441 7.00966 4.76777 6.99866 4.81201 6.99645C4.85626 6.99425 4.90049 7.00089 4.94214 7.01598C4.98379 7.03107 5.02201 7.05431 5.05458 7.08434L6.29991 8.191L8.91258 5.11767V5.11734Z"
        fill="white" />
      <path
        d="M8.91258 5.11734L8.37932 4.66386L8.21258 4.85994V5.11734H8.91258ZM9.13971 5.001L9.19612 5.69872L9.13971 5.001ZM9.42058 5.54934L8.88732 5.09586L8.88722 5.09598L9.42058 5.54934ZM6.58724 8.88267L7.12059 9.33604L7.1206 9.33602L6.58724 8.88267ZM6.11191 8.916L5.64685 9.43919L5.64706 9.43937L6.11191 8.916ZM4.61191 7.58267L5.07705 7.05939L5.06695 7.05075L4.61191 7.58267ZM5.05458 7.08434L4.57994 7.599L4.58959 7.60758L5.05458 7.08434ZM6.29991 8.191L5.83492 8.71425L6.36979 9.18956L6.83324 8.64439L6.29991 8.191ZM8.91258 5.11767L9.4459 5.57106L9.61258 5.375V5.11767H8.91258ZM9.44583 5.57081C9.41464 5.60749 9.37654 5.63766 9.33369 5.6596L8.69544 4.41355C8.57466 4.47542 8.46724 4.56047 8.37932 4.66386L9.44583 5.57081ZM9.33369 5.6596C9.29085 5.68155 9.2441 5.69484 9.19612 5.69872L9.08329 4.30327C8.94802 4.31421 8.81623 4.35168 8.69544 4.41355L9.33369 5.6596ZM9.19612 5.69872C9.14813 5.7026 9.09986 5.69699 9.05404 5.68221L9.48382 4.34981C9.35466 4.30815 9.21856 4.29234 9.08329 4.30327L9.19612 5.69872ZM9.05404 5.68221C9.00822 5.66743 8.96577 5.64377 8.9291 5.61259L9.83605 4.54608C9.73267 4.45817 9.61298 4.39147 9.48382 4.34981L9.05404 5.68221ZM8.9291 5.61259C8.89243 5.58141 8.86226 5.5433 8.84031 5.50046L10.0864 4.86221C10.0245 4.74142 9.93943 4.634 9.83605 4.54608L8.9291 5.61259ZM8.84031 5.50046C8.81836 5.45761 8.80507 5.41086 8.80119 5.36288L10.1966 5.25005C10.1857 5.11478 10.1482 4.98299 10.0864 4.86221L8.84031 5.50046ZM8.80119 5.36288C8.79731 5.31489 8.80292 5.26662 8.8177 5.2208L10.1501 5.65058C10.1918 5.52143 10.2076 5.38533 10.1966 5.25005L8.80119 5.36288ZM8.8177 5.2208C8.83248 5.17499 8.85613 5.13253 8.88732 5.09586L9.95383 6.00281C10.0417 5.89943 10.1084 5.77974 10.1501 5.65058L8.8177 5.2208ZM8.88722 5.09598L6.05388 8.42932L7.1206 9.33602L9.95393 6.00269L8.88722 5.09598ZM6.05389 8.4293C6.08552 8.3921 6.12425 8.3616 6.16782 8.33957L6.79954 9.58893C6.92233 9.52685 7.03148 9.44087 7.12059 9.33604L6.05389 8.4293ZM6.16782 8.33957C6.21138 8.31754 6.25891 8.30443 6.30762 8.30101L6.40555 9.69758C6.54281 9.68796 6.67676 9.65102 6.79954 9.58893L6.16782 8.33957ZM6.30762 8.30101C6.35632 8.2976 6.40521 8.30394 6.45143 8.31968L6.00026 9.64499C6.13051 9.68933 6.2683 9.70721 6.40555 9.69758L6.30762 8.30101ZM6.45143 8.31968C6.49765 8.33541 6.54026 8.36022 6.57676 8.39264L5.64706 9.43937C5.74993 9.53074 5.87001 9.60064 6.00026 9.64499L6.45143 8.31968ZM6.57696 8.39282L5.07696 7.05948L4.14685 8.10586L5.64685 9.43919L6.57696 8.39282ZM5.06695 7.05075C5.10398 7.08243 5.13432 7.12116 5.1562 7.1647L3.90534 7.79346C3.96701 7.91615 4.05252 8.02532 4.15687 8.11459L5.06695 7.05075ZM5.1562 7.1647C5.17809 7.20823 5.19107 7.2557 5.1944 7.30431L3.79768 7.40001C3.80707 7.53701 3.84367 7.67077 3.90534 7.79346L5.1562 7.1647ZM5.1944 7.30431C5.19773 7.35292 5.19134 7.40171 5.1756 7.44783L3.85067 6.99556C3.8063 7.12552 3.78829 7.26302 3.79768 7.40001L5.1944 7.30431ZM5.1756 7.44783C5.15986 7.49394 5.13508 7.53646 5.10273 7.57288L4.05604 6.64312C3.96485 6.74579 3.89503 6.8656 3.85067 6.99556L5.1756 7.44783ZM5.10273 7.57288C5.07036 7.60932 5.03107 7.63893 4.98713 7.66L4.38181 6.39762C4.25799 6.457 4.14724 6.54046 4.05604 6.64312L5.10273 7.57288ZM4.98713 7.66C4.9432 7.68106 4.8955 7.69316 4.84683 7.69559L4.77719 6.29732C4.64004 6.30415 4.50563 6.33825 4.38181 6.39762L4.98713 7.66ZM4.84683 7.69559C4.79817 7.69801 4.7495 7.69071 4.70369 7.67411L5.18059 6.35784C5.05148 6.31107 4.91435 6.29049 4.77719 6.29732L4.84683 7.69559ZM4.70369 7.67411C4.65788 7.65751 4.61584 7.63195 4.58002 7.59892L5.52913 6.56976C5.42819 6.47666 5.3097 6.40462 5.18059 6.35784L4.70369 7.67411ZM4.58959 7.60758L5.83492 8.71425L6.76489 7.66775L5.51956 6.56109L4.58959 7.60758ZM6.83324 8.64439L9.4459 5.57106L8.37925 4.66428L5.76658 7.73762L6.83324 8.64439ZM9.61258 5.11767V5.11734H8.21258V5.11767H9.61258Z"
        fill="white" mask="url(#path-3-outside-1_7236_7732)" />
    </g>
  </g>
  <rect x="0.5" y="0.5" width="13" height="13" rx="6.5" stroke="white" stroke-opacity="0.4" />
  <defs>
    <radialGradient id="paint0_radial_7236_7732" cx="0" cy="0" r="1" gradientUnits="userSpaceOnUse"
      gradientTransform="translate(5.5 5.5) rotate(44.9979) scale(10.6066 8.76048)">
      <stop stop-color="#75D685" />
      <stop offset="1" stop-color="#37A45C" />
    </radialGradient>
    <clipPath id="clip0_7236_7732">
      <rect x="1" y="1" width="12" height="12" rx="6" fill="white" />
    </clipPath>
    <clipPath id="clip1_7236_7732">
      <rect width="8" height="8" fill="white" transform="translate(3 3)" />
    </clipPath>
  </defs>
</svg>