<svg width="14" height="14" viewBox="0 0 14 14" fill="none" xmlns="http://www.w3.org/2000/svg">
<g clip-path="url(#clip0_7236_7817)">
<rect x="1" y="1" width="12" height="12" rx="6" fill="url(#paint0_radial_7236_7817)"/>
<g clip-path="url(#clip1_7236_7817)">
<mask id="path-3-outside-1_7236_7817" maskUnits="userSpaceOnUse" x="3.5" y="4.00012" width="7" height="6" fill="black">
<rect fill="white" x="3.5" y="4.00012" width="7" height="6"/>
<path d="M8.91258 5.11734C8.94094 5.08399 8.9756 5.05655 9.01457 5.03658C9.05354 5.01662 9.09606 5.00453 9.13971 5.001C9.18335 4.99748 9.22726 5.00258 9.26893 5.01602C9.3106 5.02946 9.34922 5.05098 9.38258 5.07934C9.41593 5.10771 9.44337 5.14237 9.46333 5.18134C9.4833 5.22031 9.49539 5.26283 9.49892 5.30647C9.50244 5.35012 9.49734 5.39403 9.4839 5.4357C9.47046 5.47737 9.44894 5.51599 9.42058 5.54934L6.58724 8.88268C6.5585 8.91649 6.52329 8.94423 6.48368 8.96426C6.44407 8.98428 6.40086 8.9962 6.35659 8.99931C6.31231 9.00241 6.26786 8.99664 6.22585 8.98234C6.18383 8.96803 6.14509 8.94548 6.11191 8.91601L4.61191 7.58268C4.57825 7.55388 4.55066 7.51867 4.53077 7.47909C4.51088 7.43951 4.49907 7.39636 4.49604 7.35217C4.49301 7.30798 4.49882 7.26362 4.51313 7.2217C4.52744 7.17978 4.54997 7.14113 4.57939 7.10801C4.6088 7.07489 4.64453 7.04797 4.68447 7.02882C4.72441 7.00967 4.76777 6.99867 4.81201 6.99646C4.85626 6.99426 4.90049 7.0009 4.94214 7.01598C4.98379 7.03107 5.02201 7.05431 5.05458 7.08434L6.29991 8.19101L8.91258 5.11768V5.11734Z"/>
</mask>
<path d="M8.91258 5.11734C8.94094 5.08399 8.9756 5.05655 9.01457 5.03658C9.05354 5.01662 9.09606 5.00453 9.13971 5.001C9.18335 4.99748 9.22726 5.00258 9.26893 5.01602C9.3106 5.02946 9.34922 5.05098 9.38258 5.07934C9.41593 5.10771 9.44337 5.14237 9.46333 5.18134C9.4833 5.22031 9.49539 5.26283 9.49892 5.30647C9.50244 5.35012 9.49734 5.39403 9.4839 5.4357C9.47046 5.47737 9.44894 5.51599 9.42058 5.54934L6.58724 8.88268C6.5585 8.91649 6.52329 8.94423 6.48368 8.96426C6.44407 8.98428 6.40086 8.9962 6.35659 8.99931C6.31231 9.00241 6.26786 8.99664 6.22585 8.98234C6.18383 8.96803 6.14509 8.94548 6.11191 8.91601L4.61191 7.58268C4.57825 7.55388 4.55066 7.51867 4.53077 7.47909C4.51088 7.43951 4.49907 7.39636 4.49604 7.35217C4.49301 7.30798 4.49882 7.26362 4.51313 7.2217C4.52744 7.17978 4.54997 7.14113 4.57939 7.10801C4.6088 7.07489 4.64453 7.04797 4.68447 7.02882C4.72441 7.00967 4.76777 6.99867 4.81201 6.99646C4.85626 6.99426 4.90049 7.0009 4.94214 7.01598C4.98379 7.03107 5.02201 7.05431 5.05458 7.08434L6.29991 8.19101L8.91258 5.11768V5.11734Z" fill="white"/>
<path d="M8.91258 5.11734L8.37932 4.66387L8.21258 4.85995V5.11734H8.91258ZM9.13971 5.001L9.19612 5.69873L9.13971 5.001ZM9.42058 5.54934L8.88732 5.09587L8.88722 5.09599L9.42058 5.54934ZM6.58724 8.88268L7.12059 9.33604L7.1206 9.33603L6.58724 8.88268ZM6.11191 8.91601L5.64685 9.4392L5.64706 9.43938L6.11191 8.91601ZM4.61191 7.58268L5.07705 7.0594L5.06695 7.05076L4.61191 7.58268ZM5.05458 7.08434L4.57994 7.59901L4.58959 7.60759L5.05458 7.08434ZM6.29991 8.19101L5.83492 8.71426L6.36979 9.18957L6.83324 8.6444L6.29991 8.19101ZM8.91258 5.11768L9.4459 5.57107L9.61258 5.37501V5.11768H8.91258ZM9.44583 5.57082C9.41464 5.6075 9.37654 5.63766 9.33369 5.65961L8.69544 4.41356C8.57466 4.47543 8.46724 4.56048 8.37932 4.66387L9.44583 5.57082ZM9.33369 5.65961C9.29085 5.68155 9.2441 5.69485 9.19612 5.69873L9.08329 4.30328C8.94802 4.31422 8.81623 4.35169 8.69544 4.41356L9.33369 5.65961ZM9.19612 5.69873C9.14813 5.70261 9.09986 5.697 9.05404 5.68222L9.48382 4.34982C9.35466 4.30816 9.21856 4.29234 9.08329 4.30328L9.19612 5.69873ZM9.05404 5.68222C9.00822 5.66744 8.96577 5.64378 8.9291 5.6126L9.83605 4.54609C9.73267 4.45818 9.61298 4.39148 9.48382 4.34982L9.05404 5.68222ZM8.9291 5.6126C8.89243 5.58141 8.86226 5.54331 8.84031 5.50046L10.0864 4.86221C10.0245 4.74143 9.93943 4.63401 9.83605 4.54609L8.9291 5.6126ZM8.84031 5.50046C8.81836 5.45762 8.80507 5.41087 8.80119 5.36289L10.1966 5.25006C10.1857 5.11479 10.1482 4.983 10.0864 4.86221L8.84031 5.50046ZM8.80119 5.36289C8.79731 5.3149 8.80292 5.26663 8.8177 5.22081L10.1501 5.65059C10.1918 5.52143 10.2076 5.38533 10.1966 5.25006L8.80119 5.36289ZM8.8177 5.22081C8.83248 5.175 8.85613 5.13254 8.88732 5.09587L9.95383 6.00282C10.0417 5.89944 10.1084 5.77975 10.1501 5.65059L8.8177 5.22081ZM8.88722 5.09599L6.05388 8.42932L7.1206 9.33603L9.95393 6.0027L8.88722 5.09599ZM6.05389 8.42931C6.08552 8.39211 6.12425 8.3616 6.16782 8.33957L6.79954 9.58894C6.92233 9.52686 7.03148 9.44088 7.12059 9.33604L6.05389 8.42931ZM6.16782 8.33957C6.21138 8.31754 6.25891 8.30444 6.30762 8.30102L6.40555 9.69759C6.54281 9.68797 6.67676 9.65103 6.79954 9.58894L6.16782 8.33957ZM6.30762 8.30102C6.35632 8.2976 6.40521 8.30395 6.45143 8.31968L6.00026 9.64499C6.13051 9.68933 6.2683 9.70722 6.40555 9.69759L6.30762 8.30102ZM6.45143 8.31968C6.49765 8.33542 6.54026 8.36022 6.57676 8.39264L5.64706 9.43938C5.74993 9.53075 5.87001 9.60065 6.00026 9.64499L6.45143 8.31968ZM6.57696 8.39282L5.07696 7.05949L4.14685 8.10586L5.64685 9.4392L6.57696 8.39282ZM5.06695 7.05076C5.10398 7.08243 5.13432 7.12117 5.1562 7.16471L3.90534 7.79347C3.96701 7.91616 4.05252 8.02533 4.15687 8.1146L5.06695 7.05076ZM5.1562 7.16471C5.17809 7.20824 5.19107 7.2557 5.1944 7.30432L3.79768 7.40002C3.80707 7.53702 3.84367 7.67078 3.90534 7.79347L5.1562 7.16471ZM5.1944 7.30432C5.19773 7.35293 5.19134 7.40172 5.1756 7.44783L3.85067 6.99557C3.8063 7.12553 3.78829 7.26302 3.79768 7.40002L5.1944 7.30432ZM5.1756 7.44783C5.15986 7.49395 5.13508 7.53646 5.10273 7.57289L4.05604 6.64313C3.96485 6.74579 3.89503 6.86561 3.85067 6.99557L5.1756 7.44783ZM5.10273 7.57289C5.07036 7.60932 5.03107 7.63894 4.98713 7.66L4.38181 6.39763C4.25799 6.45701 4.14724 6.54046 4.05604 6.64313L5.10273 7.57289ZM4.98713 7.66C4.9432 7.68107 4.8955 7.69317 4.84683 7.6956L4.77719 6.29733C4.64004 6.30416 4.50563 6.33826 4.38181 6.39763L4.98713 7.66ZM4.84683 7.6956C4.79817 7.69802 4.7495 7.69072 4.70369 7.67412L5.18059 6.35785C5.05148 6.31107 4.91435 6.2905 4.77719 6.29733L4.84683 7.6956ZM4.70369 7.67412C4.65788 7.65752 4.61584 7.63196 4.58002 7.59892L5.52913 6.56976C5.42819 6.47667 5.3097 6.40463 5.18059 6.35785L4.70369 7.67412ZM4.58959 7.60759L5.83492 8.71426L6.76489 7.66776L5.51956 6.5611L4.58959 7.60759ZM6.83324 8.6444L9.4459 5.57107L8.37925 4.66429L5.76658 7.73762L6.83324 8.6444ZM9.61258 5.11768V5.11734H8.21258V5.11768H9.61258Z" fill="white" mask="url(#path-3-outside-1_7236_7817)"/>
</g>
</g>
<rect x="0.5" y="0.5" width="13" height="13" rx="6.5" stroke="white" stroke-opacity="0.4"/>
<defs>
<radialGradient id="paint0_radial_7236_7817" cx="0" cy="0" r="1" gradientUnits="userSpaceOnUse" gradientTransform="translate(5.5 5.5) rotate(44.9979) scale(10.6066 8.76048)">
<stop stop-color="#75D685"/>
<stop offset="1" stop-color="#37A45C"/>
</radialGradient>
<clipPath id="clip0_7236_7817">
<rect x="1" y="1" width="12" height="12" rx="6" fill="white"/>
</clipPath>
<clipPath id="clip1_7236_7817">
<rect width="8" height="8" fill="white" transform="translate(3 3)"/>
</clipPath>
</defs>
</svg>
