<svg height="512" viewBox="0 0 64 64" width="512" xmlns="http://www.w3.org/2000/svg">
    <g id="_20-Diamond" data-name="20-Diamond">
        <path d="m44 37-15-17h10z" fill="#c30010" />
        <path d="m39 20h-10l5-7z" fill="#c30010" />
        <path d="m44 13-5 7-5-7z" fill="#c30010" />
        <path d="m54 13-5 7-5-7z" fill="#c30010" />
        <path d="m59 20h-10l5-7z" fill="#c30010" />
        <path d="m59 20-15 17 5-17z" fill="#c30010" />
        <path d="m49 20-5 17-5-17z" fill="#c30010" />
        <path d="m49 20h-10l5-7z" fill="#c30010" />
        <g fill="#eee">
            <path d="m44 9a1 1 0 0 1 -1-1v-5a1 1 0 0 1 2 0v5a1 1 0 0 1 -1 1z" />
            <path
                d="m37.001 10a.9963.9963 0 0 1 -.801-.4l-3-4a1 1 0 1 1 1.6-1.2l3 4a1 1 0 0 1 -.799 1.6z" />
            <path
                d="m50.999 10a1 1 0 0 1 -.799-1.6l3-4a1 1 0 1 1 1.6 1.2l-3 4a.9963.9963 0 0 1 -.801.4z" />
        </g>
        <path
            d="m60.8146 46.098a3.6036 3.6036 0 0 0 -4.2171-2.3744l-15.6056 3.5464-.01-.0019a4.2127 4.2127 0 0 0 -1.5577-3.8376l-11.6953-9.2679a10 10 0 0 0 -6.2108-2.1626h-8.5181l.002 19 17.3789 8.69a12.4132 12.4132 0 0 0 11.3369-.12l17.3577-9.1436a3.6035 3.6035 0 0 0 1.7391-4.3284z"
            fill="#ffccbc" />
        <path
            d="m59.08 50.43-17.36 9.14a12.4178 12.4178 0 0 1 -10.76.39c.32.03.65.04.97.04a12.4332 12.4332 0 0 0 5.79-1.43l17.36-9.14a3.6057 3.6057 0 0 0 1.73-4.33 3.7339 3.7339 0 0 0 -.72-1.26l.51-.12a3.6094 3.6094 0 0 1 2.48 6.71z"
            fill="#ffab91" />
        <path d="m11 29h-8v26h8a2 2 0 0 0 2-2v-22a2 2 0 0 0 -2-2z" fill="#64b5f6" />
        <path
            d="m13 31v22a2.0059 2.0059 0 0 1 -2 2h-8v-3h3a2.0059 2.0059 0 0 0 2-2v-21h3a2.0059 2.0059 0 0 1 2 2z"
            fill="#42a5f5" />
        <path
            d="m40.75 45.25a4.0558 4.0558 0 0 1 -.7028 1.2033 4.3852 4.3852 0 0 1 -5.4525.9006l-9.6471-5.2866a1.3154 1.3154 0 0 0 -1.9476 1.1536 1.3153 1.3153 0 0 0 .6833 1.1535l11.0867 6.0756a4.2217 4.2217 0 0 0 5.98-5.2z"
            fill="#ffab91" />
    </g>
</svg>