<?xml version="1.0" encoding="utf-8"?>
<!-- Generator: Adobe Illustrator 26.3.1, SVG Export Plug-In . SVG Version: 6.00 Build 0)  -->
<svg version="1.1" id="Layer_1" xmlns="http://www.w3.org/2000/svg" xmlns:xlink="http://www.w3.org/1999/xlink" x="0px" y="0px"
	 viewBox="0 0 400 400" style="enable-background:new 0 0 400 400;" xml:space="preserve">
<style type="text/css">
	.st0{fill:#282D38;}
	.st1{clip-path:url(#SVGID_00000017495197570538936060000007636624577417503643_);}
	.st2{fill:url(#SVGID_00000036968884831052301930000002137167963551513490_);}
	.st3{fill:url(#SVGID_00000105424300439408232960000004561412986287824542_);}
	.st4{fill:url(#SVGID_00000176747858606037064750000001314570239483066042_);}
	.st5{fill:url(#SVGID_00000169529765710171580380000002186840859930540465_);}
	.st6{fill:url(#SVGID_00000114764676981051401200000000521948597119560876_);}
	.st7{fill:url(#SVGID_00000006691559931410971620000009869761906592401818_);}
	.st8{fill:url(#SVGID_00000128454257791209384230000013364421913925080508_);}
	.st9{fill:url(#SVGID_00000073003028051980055410000017011305130406420126_);}
	.st10{fill:url(#SVGID_00000167362108408589724560000016718301453537218989_);}
</style>
<g>
	<path class="st0" d="M200,397L200,397C91.2,397,3,308.8,3,200v0C3,91.2,91.2,3,200,3h0c108.8,0,197,88.2,197,197v0
		C397,308.8,308.8,397,200,397z"/>
	<g>
		<g>
			<defs>
				<rect id="SVGID_1_" x="79.2" y="79.2" width="241.6" height="241.6"/>
			</defs>
			<clipPath id="SVGID_00000071555398044258440140000006683803751143310745_">
				<use xlink:href="#SVGID_1_"  style="overflow:visible;"/>
			</clipPath>
			<g style="clip-path:url(#SVGID_00000071555398044258440140000006683803751143310745_);">
				
					<linearGradient id="SVGID_00000178906936828333744190000011250940577382132638_" gradientUnits="userSpaceOnUse" x1="-7076.5894" y1="-1043.9847" x2="-6867.3774" y2="-1045.205" gradientTransform="matrix(1 0 0 -1 7134 -823)">
					<stop  offset="1.000000e-02" style="stop-color:#FFCA30"/>
					<stop  offset="0.97" style="stop-color:#FF9E2B"/>
				</linearGradient>
				<path style="fill:url(#SVGID_00000178906936828333744190000011250940577382132638_);" d="M231.2,191.2c0,5.9-2.4,11.6-6.6,15.8
					c-4.2,4.2-9.9,6.6-15.8,6.6h-54.3c-63.6,0-69.2,41.7-59.1,60.7c-10.6-16.4-16.2-35.4-16.1-54.9v-39.7c0-1.4,0.3-2.9,0.8-4.2
					c0.6-1.3,1.4-2.5,2.4-3.6c1-1,2.2-1.8,3.6-2.4c1.3-0.6,2.8-0.8,4.2-0.8h118.7c3.3,0,6.6,0.7,9.6,2.1c3,1.4,5.6,3.5,7.7,6
					c0.4,0.6,0.9,1.1,1.3,1.7c0.4,0.6,0.8,1.2,1.1,1.8C230.3,183.8,231.2,187.5,231.2,191.2z"/>
				
					<linearGradient id="SVGID_00000021833882352034360090000010485425515795916946_" gradientUnits="userSpaceOnUse" x1="-7055.1045" y1="-1035.3341" x2="-6989.353" y2="-1028.9333" gradientTransform="matrix(1 0 0 -1 7134 -823)">
					<stop  offset="1.000000e-02" style="stop-color:#FFCA30"/>
					<stop  offset="1" style="stop-color:#FFCA30;stop-opacity:0"/>
				</linearGradient>
				<path style="fill:url(#SVGID_00000021833882352034360090000010485425515795916946_);" d="M88.1,249.9
					c-3.2-9.9-4.9-20.2-4.9-30.6v-39.7c0-1.8,0.7-3.6,2-4.9c1.3-1.3,3.1-2,4.9-2h118.7c2.7,0,5.4,0.6,7.9,1.8
					c2.5,1.2,4.6,2.8,6.4,4.9c0.3,0.4,0.7,0.9,1.1,1.4c0.3,0.5,0.7,1,0.9,1.5c1.5,2.8,2.3,6,2.2,9.1c-0.1,3.2-1,6.3-2.6,9
					c-1.6,2.7-4,5-6.7,6.6c-2.8,1.6-5.9,2.4-9.1,2.4h-54.3c-37.6,0-53.9,14.1-61,25.8C90.8,239.9,89,244.8,88.1,249.9z"/>
				
					<linearGradient id="SVGID_00000108303934613313699110000000443300819348393896_" gradientUnits="userSpaceOnUse" x1="-6890.2998" y1="-1152.7144" x2="-7037.6255" y2="-1052.3433" gradientTransform="matrix(1 0 0 -1 7134 -823)">
					<stop  offset="1.000000e-02" style="stop-color:#FFCA30"/>
					<stop  offset="0.97" style="stop-color:#FF9E2B"/>
				</linearGradient>
				<path style="fill:url(#SVGID_00000108303934613313699110000000443300819348393896_);" d="M251.6,320.8h-71c-16,0-31.8-3.8-46-11
					c-14.3-7.3-26.6-17.8-36-30.7c-1.1-1.5-2.2-3.1-3.2-4.7c-10-19-4.5-60.7,59.1-60.7c-0.3,0-0.7,0.1-1,0.3
					c-0.3,0.2-0.5,0.5-0.7,0.8c-0.1,0.3-0.2,0.7-0.1,1c0.1,0.3,0.2,0.7,0.5,0.9l100,100.1c0.3,0.3,0.6,0.8,0.7,1.2
					c0.1,0.5,0,0.9-0.1,1.4c-0.2,0.4-0.5,0.8-0.9,1.1C252.6,320.6,252.1,320.8,251.6,320.8z"/>
				
					<linearGradient id="SVGID_00000143595637652061910180000007112315662802221975_" gradientUnits="userSpaceOnUse" x1="-6876.1665" y1="-859.8865" x2="-6841.9185" y2="-1110.2223" gradientTransform="matrix(1 0 0 -1 7134 -823)">
					<stop  offset="1.000000e-02" style="stop-color:#FFCA30"/>
					<stop  offset="1" style="stop-color:#FF9E2B"/>
				</linearGradient>
				<path style="fill:url(#SVGID_00000143595637652061910180000007112315662802221975_);" d="M320.8,180.6v135
					c0,0.4-0.1,0.8-0.4,1.2c-0.2,0.3-0.6,0.6-1,0.8c-0.4,0.2-0.8,0.2-1.2,0.1c-0.4-0.1-0.8-0.3-1.1-0.6l-68.9-68.9
					c-0.2-0.2-0.3-0.4-0.4-0.7c-0.1-0.3-0.1-0.5-0.1-0.8c0-0.3,0.1-0.5,0.2-0.8c0.1-0.2,0.3-0.4,0.5-0.6c2.2-1.6,4.3-3.4,6.3-5.3
					c54.4-49.6,37.8-154.9-35.4-160.9C275.4,79.2,320.8,124.6,320.8,180.6z"/>
				
					<linearGradient id="SVGID_00000004540303893671368400000004651011520314385315_" gradientUnits="userSpaceOnUse" x1="-7058.0278" y1="-940.2314" x2="-6847.7354" y2="-994.9014" gradientTransform="matrix(1 0 0 -1 7134 -823)">
					<stop  offset="1.000000e-02" style="stop-color:#FFCA30"/>
					<stop  offset="0.97" style="stop-color:#FF9E2B"/>
				</linearGradient>
				<path style="fill:url(#SVGID_00000004540303893671368400000004651011520314385315_);" d="M254.8,240.2
					c6.7-6.3,12.1-13.9,15.7-22.3c3.6-8.4,5.5-17.5,5.5-26.7c0-17.8-7.1-34.9-19.7-47.5c-12.6-12.6-29.7-19.7-47.5-19.7H101.6
					c-5.8-0.2-11.3-2.7-15.3-6.9c-4-4.2-6.3-9.7-6.3-15.5s2.2-11.4,6.3-15.5c4-4.2,9.5-6.6,15.3-6.9h117.8
					C292.6,85.3,309.2,190.6,254.8,240.2z"/>
				
					<linearGradient id="SVGID_00000088833730997829221520000009875440214832822198_" gradientUnits="userSpaceOnUse" x1="-7055.1821" y1="-959.5961" x2="-6937.3486" y2="-959.1726" gradientTransform="matrix(1 0 0 -1 7134 -823)">
					<stop  offset="1.000000e-02" style="stop-color:#FFCA30"/>
					<stop  offset="0.67" style="stop-color:#FF9E2B;stop-opacity:0"/>
				</linearGradient>
				<path style="fill:url(#SVGID_00000088833730997829221520000009875440214832822198_);" d="M280,189.2
					c-1.1-38.3-32.6-69.2-71.1-69.2H101.6c-4.7-0.2-9.2-2.2-12.5-5.7c-3.3-3.4-5.1-8-5.1-12.7c0-4.7,1.8-9.3,5.1-12.7
					c3.3-3.4,7.8-5.5,12.5-5.7h117.6c27.5,2.4,48.9,20,58.5,48.5c5.9,17.2,6.8,36.9,2.6,55.6C280.3,187.9,280.1,188.6,280,189.2z"/>
				
					<linearGradient id="SVGID_00000170982916196960426180000003193737072399020684_" gradientUnits="userSpaceOnUse" x1="-6991.0068" y1="-1030.3514" x2="-7048.3735" y2="-1080.3796" gradientTransform="matrix(1 0 0 -1 7134 -823)">
					<stop  offset="1.000000e-02" style="stop-color:#FF9E2B"/>
					<stop  offset="0.53" style="stop-color:#FFCA30"/>
					<stop  offset="0.97" style="stop-color:#FFB42B"/>
				</linearGradient>
				<path style="fill:url(#SVGID_00000170982916196960426180000003193737072399020684_);" d="M92.2,265.1c-1.6-6.9-1.3-14.2,1-20.9
					c1.1-3.4,2.7-6.6,4.8-9.5c2.1-2.9,4.5-5.5,7.2-7.8c5.5-4.5,11.9-7.8,18.8-9.7c6.8-2,13.7-3.1,20.8-3.3c-3.5,0.5-7,0.9-10.4,1.7
					c-1.7,0.3-3.4,0.8-5.1,1.2c-1.7,0.5-3.4,0.9-5,1.5c-3.3,1.1-6.5,2.4-9.6,4c-3.1,1.6-6,3.5-8.6,5.7c-5.4,4.4-9.5,10.1-11.9,16.6
					c-1.2,3.2-2,6.6-2.3,10.1C91.6,258.1,91.7,261.6,92.2,265.1z"/>
				
					<linearGradient id="SVGID_00000107579932842231195750000012747829934974922143_" gradientUnits="userSpaceOnUse" x1="-6890.1333" y1="-896.9917" x2="-6843.2412" y2="-1028.7155" gradientTransform="matrix(1 0 0 -1 7134 -823)">
					<stop  offset="5.000000e-02" style="stop-color:#FF9E2B"/>
					<stop  offset="0.51" style="stop-color:#FFCA30"/>
					<stop  offset="0.97" style="stop-color:#FF9E2B"/>
				</linearGradient>
				<path style="fill:url(#SVGID_00000107579932842231195750000012747829934974922143_);" d="M275.1,213.6
					c10.7-22.5,13.7-48,8.4-72.4c-2.6-12-7.5-23.6-14.7-33.6c-3.6-5-7.8-9.6-12.6-13.5c-4.8-4-10.1-7.3-15.7-9.8
					c5.9,2.2,11.4,5.3,16.3,9.1c5,3.9,9.4,8.4,13.2,13.4c3.8,5,7,10.5,9.5,16.2c2.5,5.8,4.5,11.7,5.9,17.9c2.6,12.3,3.1,25,1.4,37.4
					c-0.9,6.2-2.3,12.3-4.2,18.3C280.6,202.4,278.1,208.1,275.1,213.6z"/>
			</g>
		</g>
	</g>
	<g>
		
			<linearGradient id="SVGID_00000142140103948211747980000002524708807644114325_" gradientUnits="userSpaceOnUse" x1="59.9928" y1="340.0072" x2="340.0072" y2="59.9928">
			<stop  offset="1.000000e-02" style="stop-color:#FFCA30"/>
			<stop  offset="0.97" style="stop-color:#FF9E2B"/>
		</linearGradient>
		<path style="fill:url(#SVGID_00000142140103948211747980000002524708807644114325_);" d="M200,13.9c49.7,0,96.5,19.4,131.6,54.5
			s54.5,81.9,54.5,131.6s-19.4,96.5-54.5,131.6s-81.9,54.5-131.6,54.5s-96.5-19.4-131.6-54.5S13.9,249.7,13.9,200
			s19.4-96.5,54.5-131.6S150.3,13.9,200,13.9 M200,2C149.3,2,98.7,21.3,60,60c-77.3,77.3-77.3,202.7,0,280c38.7,38.7,89.3,58,140,58
			s101.3-19.3,140-58c77.3-77.3,77.3-202.7,0-280C301.3,21.3,250.7,2,200,2L200,2z"/>
	</g>
</g>
</svg>
