<?xml version="1.0" encoding="utf-8"?>
<!-- Generator: Adobe Illustrator 26.3.1, SVG Export Plug-In . SVG Version: 6.00 Build 0)  -->
<svg version="1.1" id="Layer_1" xmlns="http://www.w3.org/2000/svg" xmlns:xlink="http://www.w3.org/1999/xlink" x="0px" y="0px"
	 viewBox="0 0 500 81.8" style="enable-background:new 0 0 500 81.8;" xml:space="preserve">
<style type="text/css">
	.st0{clip-path:url(#SVGID_00000183931228041077273040000001161121233032950203_);}
	.st1{fill:url(#SVGID_00000083771040337387360230000014310332603060093340_);}
	.st2{fill:url(#SVGID_00000062184304183530718590000018334080568461102743_);}
	.st3{fill:url(#SVGID_00000117660276975392389130000013416567011431879588_);}
	.st4{fill:url(#SVGID_00000150078841352356107950000006432848551583884970_);}
	.st5{fill:url(#SVGID_00000056418194031371492980000016268228140705247366_);}
	.st6{fill:url(#SVGID_00000046333572683520191230000007604126644631185340_);}
	.st7{fill:url(#SVGID_00000009554838090707863720000017377116657392589983_);}
	.st8{fill:url(#SVGID_00000025403227088958814530000012811186599021020578_);}
	.st9{fill:#FFFFFF;}
</style>
<g>
	<g>
		<defs>
			<rect id="SVGID_1_" x="2" y="2.9" width="75.9" height="75.9"/>
		</defs>
		<clipPath id="SVGID_00000132777111903989740850000017478639463455335604_">
			<use xlink:href="#SVGID_1_"  style="overflow:visible;"/>
		</clipPath>
		<g style="clip-path:url(#SVGID_00000132777111903989740850000017478639463455335604_);">
			
				<linearGradient id="SVGID_00000028292987221401021920000017077204776364192688_" gradientUnits="userSpaceOnUse" x1="-6770.8569" y1="-1604.5927" x2="-6705.0781" y2="-1604.9763" gradientTransform="matrix(1 0 0 -1 6766 -1557.0997)">
				<stop  offset="1.000000e-02" style="stop-color:#FFCA30"/>
				<stop  offset="0.97" style="stop-color:#FF9E2B"/>
			</linearGradient>
			<path style="fill:url(#SVGID_00000028292987221401021920000017077204776364192688_);" d="M49.8,38.1c0,1.9-0.7,3.7-2.1,5
				c-1.3,1.3-3.1,2.1-5,2.1H25.7c-20,0-21.7,13.1-18.6,19.1C3.8,59.1,2,53.1,2,47V34.5c0-0.5,0.1-0.9,0.3-1.3
				c0.2-0.4,0.4-0.8,0.7-1.1c0.3-0.3,0.7-0.6,1.1-0.7c0.4-0.2,0.9-0.3,1.3-0.3h37.3c1,0,2.1,0.2,3,0.7c0.9,0.4,1.8,1.1,2.4,1.9
				c0.1,0.2,0.3,0.4,0.4,0.5c0.1,0.2,0.2,0.4,0.4,0.6C49.5,35.8,49.8,37,49.8,38.1z"/>
			
				<linearGradient id="SVGID_00000046307884956347522780000005381912299459844540_" gradientUnits="userSpaceOnUse" x1="-6764.1021" y1="-1601.8728" x2="-6743.4287" y2="-1599.8604" gradientTransform="matrix(1 0 0 -1 6766 -1557.0997)">
				<stop  offset="1.000000e-02" style="stop-color:#FFCA30"/>
				<stop  offset="1" style="stop-color:#FFCA30;stop-opacity:0"/>
			</linearGradient>
			<path style="fill:url(#SVGID_00000046307884956347522780000005381912299459844540_);" d="M4.8,56.6c-1-3.1-1.5-6.3-1.5-9.6V34.5
				c0-0.6,0.2-1.1,0.6-1.6c0.4-0.4,1-0.6,1.5-0.6h37.3c0.9,0,1.7,0.2,2.5,0.6c0.8,0.4,1.5,0.9,2,1.6c0.1,0.1,0.2,0.3,0.3,0.4
				c0.1,0.2,0.2,0.3,0.3,0.5c0.5,0.9,0.7,1.9,0.7,2.9c0,1-0.3,2-0.8,2.8c-0.5,0.9-1.2,1.6-2.1,2.1c-0.9,0.5-1.9,0.8-2.9,0.8H25.7
				c-11.8,0-17,4.4-19.2,8.1C5.7,53.4,5.1,55,4.8,56.6z"/>
			
				<linearGradient id="SVGID_00000127760010990324461220000003315311781069051285_" gradientUnits="userSpaceOnUse" x1="-6712.2852" y1="-1638.7788" x2="-6758.6064" y2="-1607.2207" gradientTransform="matrix(1 0 0 -1 6766 -1557.0997)">
				<stop  offset="1.000000e-02" style="stop-color:#FFCA30"/>
				<stop  offset="0.97" style="stop-color:#FF9E2B"/>
			</linearGradient>
			<path style="fill:url(#SVGID_00000127760010990324461220000003315311781069051285_);" d="M56.2,78.9H33.9c-5,0-10-1.2-14.5-3.5
				c-4.5-2.3-8.4-5.6-11.3-9.7c-0.4-0.5-0.7-1-1-1.5c-3.2-6-1.4-19.1,18.6-19.1c-0.1,0-0.2,0-0.3,0.1c-0.1,0.1-0.2,0.1-0.2,0.3
				c0,0.1-0.1,0.2,0,0.3c0,0.1,0.1,0.2,0.2,0.3l31.5,31.5c0.1,0.1,0.2,0.2,0.2,0.4c0,0.1,0,0.3,0,0.4c-0.1,0.1-0.2,0.3-0.3,0.3
				C56.5,78.8,56.4,78.9,56.2,78.9z"/>
			
				<linearGradient id="SVGID_00000052785707673327783360000002470575366147118981_" gradientUnits="userSpaceOnUse" x1="-6707.8413" y1="-1546.7096" x2="-6697.0732" y2="-1625.4187" gradientTransform="matrix(1 0 0 -1 6766 -1557.0997)">
				<stop  offset="1.000000e-02" style="stop-color:#FFCA30"/>
				<stop  offset="1" style="stop-color:#FF9E2B"/>
			</linearGradient>
			<path style="fill:url(#SVGID_00000052785707673327783360000002470575366147118981_);" d="M77.9,34.8v42.5c0,0.1,0,0.3-0.1,0.4
				c-0.1,0.1-0.2,0.2-0.3,0.2c-0.1,0.1-0.3,0.1-0.4,0c-0.1,0-0.2-0.1-0.3-0.2L55.2,56.1C55.1,56,55,55.9,55,55.9c0-0.1,0-0.2,0-0.3
				c0-0.1,0-0.2,0.1-0.2c0-0.1,0.1-0.1,0.2-0.2c0.7-0.5,1.4-1.1,2-1.7C74.3,37.9,69.1,4.8,46.1,2.9C63.7,2.9,77.9,17.2,77.9,34.8z"
				/>
			
				<linearGradient id="SVGID_00000005966280286519223650000001414090459885122952_" gradientUnits="userSpaceOnUse" x1="-6765.021" y1="-1571.9712" x2="-6698.9023" y2="-1589.1602" gradientTransform="matrix(1 0 0 -1 6766 -1557.0997)">
				<stop  offset="1.000000e-02" style="stop-color:#FFCA30"/>
				<stop  offset="0.97" style="stop-color:#FF9E2B"/>
			</linearGradient>
			<path style="fill:url(#SVGID_00000005966280286519223650000001414090459885122952_);" d="M57.2,53.5c2.1-2,3.8-4.4,4.9-7
				c1.1-2.6,1.7-5.5,1.7-8.4c0-5.6-2.2-11-6.2-14.9c-4-4-9.3-6.2-14.9-6.2H9c-1.8-0.1-3.5-0.8-4.8-2.2s-2-3.1-2-4.9s0.7-3.6,2-4.9
				C5.5,3.8,7.2,3,9,2.9h37C69.1,4.8,74.3,37.9,57.2,53.5z"/>
			
				<linearGradient id="SVGID_00000074421385946189919110000012164339187237145252_" gradientUnits="userSpaceOnUse" x1="-6764.1265" y1="-1578.0597" x2="-6727.0781" y2="-1577.9265" gradientTransform="matrix(1 0 0 -1 6766 -1557.0997)">
				<stop  offset="1.000000e-02" style="stop-color:#FFCA30"/>
				<stop  offset="0.67" style="stop-color:#FF9E2B;stop-opacity:0"/>
			</linearGradient>
			<path style="fill:url(#SVGID_00000074421385946189919110000012164339187237145252_);" d="M65.1,37.5c-0.3-12-10.2-21.7-22.4-21.7
				H9C7.6,15.7,6.1,15,5.1,14c-1-1.1-1.6-2.5-1.6-4c0-1.5,0.6-2.9,1.6-4c1-1.1,2.4-1.7,3.9-1.8h37c8.7,0.7,15.4,6.3,18.4,15.3
				c1.8,5.4,2.1,11.6,0.8,17.5C65.2,37.1,65.2,37.3,65.1,37.5z"/>
			
				<linearGradient id="SVGID_00000115510193132692625890000006978648352170957713_" gradientUnits="userSpaceOnUse" x1="-6743.9487" y1="-1600.3062" x2="-6761.9858" y2="-1616.0358" gradientTransform="matrix(1 0 0 -1 6766 -1557.0997)">
				<stop  offset="1.000000e-02" style="stop-color:#FF9E2B"/>
				<stop  offset="0.53" style="stop-color:#FFCA30"/>
				<stop  offset="0.97" style="stop-color:#FFB42B"/>
			</linearGradient>
			<path style="fill:url(#SVGID_00000115510193132692625890000006978648352170957713_);" d="M6.1,61.4c-0.5-2.2-0.4-4.5,0.3-6.6
				c0.4-1.1,0.9-2.1,1.5-3c0.6-0.9,1.4-1.7,2.3-2.5c1.7-1.4,3.7-2.4,5.9-3c2.1-0.6,4.3-1,6.5-1c-1.1,0.2-2.2,0.3-3.3,0.5
				c-0.5,0.1-1.1,0.2-1.6,0.4c-0.5,0.2-1.1,0.3-1.6,0.5c-1,0.3-2,0.8-3,1.3c-1,0.5-1.9,1.1-2.7,1.8c-1.7,1.4-3,3.2-3.7,5.2
				c-0.4,1-0.6,2.1-0.7,3.2C5.9,59.2,5.9,60.3,6.1,61.4z"/>
			
				<linearGradient id="SVGID_00000070117991627377236330000004869493464069711264_" gradientUnits="userSpaceOnUse" x1="-6712.2329" y1="-1558.376" x2="-6697.4893" y2="-1599.7917" gradientTransform="matrix(1 0 0 -1 6766 -1557.0997)">
				<stop  offset="5.000000e-02" style="stop-color:#FF9E2B"/>
				<stop  offset="0.51" style="stop-color:#FFCA30"/>
				<stop  offset="0.97" style="stop-color:#FF9E2B"/>
			</linearGradient>
			<path style="fill:url(#SVGID_00000070117991627377236330000004869493464069711264_);" d="M63.6,45.2c3.4-7.1,4.3-15.1,2.6-22.8
				c-0.8-3.8-2.3-7.4-4.6-10.6c-1.1-1.6-2.5-3-4-4.2c-1.5-1.2-3.2-2.3-4.9-3.1c1.8,0.7,3.6,1.7,5.1,2.9c1.6,1.2,3,2.6,4.1,4.2
				c1.2,1.6,2.2,3.3,3,5.1c0.8,1.8,1.4,3.7,1.8,5.6c0.8,3.9,1,7.8,0.4,11.8c-0.3,1.9-0.7,3.9-1.3,5.7C65.3,41.6,64.5,43.5,63.6,45.2
				z"/>
		</g>
	</g>
	<path class="st9" d="M110.9,38.9h2.5c2.4,0,4.2-0.4,5.4-1.2c1.2-0.8,1.7-2.1,1.7-3.8c0-1.7-0.6-2.9-1.8-3.7c-1.2-0.7-3-1.1-5.5-1.1
		h-2.3V38.9z M110.9,45.1V59h-7.7V22.8h10.5c4.9,0,8.5,0.9,10.9,2.7c2.4,1.8,3.5,4.5,3.5,8.1c0,2.1-0.6,4-1.8,5.7
		c-1.2,1.6-2.8,2.9-5,3.9c5.4,8.1,9,13.4,10.6,15.7h-8.5L115,45.1H110.9z"/>
	<path class="st9" d="M157.5,59h-20.8V22.8h20.8v6.3h-13.2V37h12.2v6.3h-12.2v9.3h13.2V59z"/>
	<path class="st9" d="M172.6,59h-7.5V22.8h20.7v6.3h-13.2v9.3h12.3v6.3h-12.3V59z"/>
	<path class="st9" d="M192.9,59V22.8h7.7v29.8h14.7V59H192.9z"/>
	<path class="st9" d="M242.3,59h-20.8V22.8h20.8v6.3h-13.2V37h12.2v6.3h-12.2v9.3h13.2V59z"/>
	<path class="st9" d="M279.1,59h-8.8l-8.4-13.7L253.5,59h-8.2l12-18.6l-11.2-17.5h8.5l7.8,13l7.6-13h8.3l-11.3,17.9L279.1,59z"/>
	<path class="st9" d="M301.4,59h-4.2V22.8h20.1v3.7h-15.9v13.2h15v3.7h-15V59z"/>
	<path class="st9" d="M323.4,59V22.8h4.2V59H323.4z"/>
	<path class="st9" d="M365.8,59H361l-19.8-30.3H341c0.3,3.6,0.4,6.8,0.4,9.8V59h-3.9V22.8h4.7L362,53h0.2c0-0.4-0.1-1.9-0.2-4.3
		c-0.1-2.4-0.2-4.2-0.1-5.2V22.8h3.9V59z"/>
	<path class="st9" d="M398.4,59l-4.5-11.5h-14.5L375,59h-4.3L385,22.7h3.5L402.8,59H398.4z M392.6,43.7l-4.2-11.2
		c-0.5-1.4-1.1-3.2-1.7-5.2c-0.4,1.6-0.9,3.3-1.6,5.2l-4.3,11.2H392.6z"/>
	<path class="st9" d="M436,59h-4.8l-19.8-30.3h-0.2c0.3,3.6,0.4,6.8,0.4,9.8V59h-3.9V22.8h4.7L432.2,53h0.2c0-0.4-0.1-1.9-0.2-4.3
		c-0.1-2.4-0.2-4.2-0.1-5.2V22.8h3.9V59z"/>
	<path class="st9" d="M461.4,26.1c-4,0-7.1,1.3-9.4,4c-2.3,2.6-3.4,6.3-3.4,10.9c0,4.7,1.1,8.4,3.3,11c2.2,2.6,5.4,3.9,9.5,3.9
		c2.5,0,5.4-0.5,8.6-1.4v3.7c-2.5,0.9-5.6,1.4-9.3,1.4c-5.3,0-9.4-1.6-12.3-4.8c-2.9-3.2-4.3-7.8-4.3-13.8c0-3.7,0.7-7,2.1-9.8
		c1.4-2.8,3.4-5,6-6.5c2.6-1.5,5.7-2.3,9.3-2.3c3.8,0,7.1,0.7,9.9,2.1l-1.8,3.6C466.9,26.7,464.1,26.1,461.4,26.1z"/>
	<path class="st9" d="M498,59h-20.1V22.8H498v3.7h-15.9v11.6h15v3.7h-15v13.3H498V59z"/>
</g>
</svg>
