<?xml version="1.0" encoding="utf-8"?>
<!-- Generator: Adobe Illustrator 26.3.1, SVG Export Plug-In . SVG Version: 6.00 Build 0)  -->
<svg version="1.1" id="Layer_1" xmlns="http://www.w3.org/2000/svg" xmlns:xlink="http://www.w3.org/1999/xlink" x="0px" y="0px"
	 viewBox="0 0 300 300" style="enable-background:new 0 0 300 300;" xml:space="preserve">
<style type="text/css">
	.st0{clip-path:url(#SVGID_00000128483743299054173440000011760443514232924072_);}
	.st1{fill:url(#SVGID_00000106119306980835823990000005801245769316220305_);}
	.st2{fill:url(#SVGID_00000167395142726183532640000001174532318034074796_);}
	.st3{fill:url(#SVGID_00000147198258075312828450000013484782242898539707_);}
	.st4{fill:url(#SVGID_00000126318512485791391970000014265090969622622632_);}
	.st5{fill:url(#SVGID_00000132069244693088082670000006900681551805073848_);}
	.st6{fill:url(#SVGID_00000052105638530001804950000013243741754687726779_);}
	.st7{fill:url(#SVGID_00000067939658862196129570000003784398595468795299_);}
	.st8{fill:url(#SVGID_00000174576098988448195870000016453067002673306550_);}
</style>
<g>
	<defs>
		<rect id="SVGID_1_" x="2" y="2" width="296" height="296"/>
	</defs>
	<clipPath id="SVGID_00000035510120460710062540000012330619471564880317_">
		<use xlink:href="#SVGID_1_"  style="overflow:visible;"/>
	</clipPath>
	<g style="clip-path:url(#SVGID_00000035510120460710062540000012330619471564880317_);">
		
			<linearGradient id="SVGID_00000016047263202366173590000004389216358772459649_" gradientUnits="userSpaceOnUse" x1="-6790.7246" y1="-1514.6039" x2="-6534.3628" y2="-1516.0991" gradientTransform="matrix(1 0 0 -1 6766 -1338.8899)">
			<stop  offset="1.000000e-02" style="stop-color:#FFCA30"/>
			<stop  offset="0.97" style="stop-color:#FF9E2B"/>
		</linearGradient>
		<path style="fill:url(#SVGID_00000016047263202366173590000004389216358772459649_);" d="M188.2,139.2c0,7.3-2.9,14.3-8,19.4
			c-5.2,5.2-12.1,8-19.4,8H94.3c-78,0-84.8,51.1-72.5,74.4C8.8,221,2,197.6,2,173.8v-48.6c0-1.8,0.3-3.5,1-5.1
			c0.7-1.6,1.7-3.1,2.9-4.4c1.2-1.2,2.7-2.2,4.4-2.9c1.6-0.7,3.4-1,5.1-1h145.4c4,0,8,0.9,11.7,2.6c3.7,1.7,6.9,4.2,9.5,7.4
			c0.6,0.7,1.1,1.4,1.6,2.1s0.9,1.5,1.4,2.3C187.1,130.1,188.3,134.6,188.2,139.2z"/>
		
			<linearGradient id="SVGID_00000078005805564107536070000009327284308209747843_" gradientUnits="userSpaceOnUse" x1="-6764.3975" y1="-1504.0038" x2="-6683.8276" y2="-1496.1604" gradientTransform="matrix(1 0 0 -1 6766 -1338.8899)">
			<stop  offset="1.000000e-02" style="stop-color:#FFCA30"/>
			<stop  offset="1" style="stop-color:#FFCA30;stop-opacity:0"/>
		</linearGradient>
		<path style="fill:url(#SVGID_00000078005805564107536070000009327284308209747843_);" d="M12.9,211.2c-4-12.1-6-24.7-6-37.4v-48.6
			c0-2.3,0.9-4.4,2.5-6c1.6-1.6,3.8-2.5,6-2.5h145.4c3.3,0,6.6,0.7,9.6,2.1c3,1.4,5.7,3.5,7.8,6.1c0.4,0.5,0.9,1.1,1.3,1.7
			c0.4,0.6,0.8,1.3,1.1,1.9c1.9,3.4,2.8,7.3,2.7,11.2c-0.1,3.9-1.2,7.7-3.2,11.1c-2,3.4-4.8,6.1-8.2,8.1c-3.4,1.9-7.2,3-11.1,3H94.3
			c-46,0-66.1,17.2-74.8,31.7C16.2,198.9,14,204.9,12.9,211.2z"/>
		
			<linearGradient id="SVGID_00000001630595351530367990000016368762906063399556_" gradientUnits="userSpaceOnUse" x1="-6562.4512" y1="-1647.8378" x2="-6742.9795" y2="-1524.8462" gradientTransform="matrix(1 0 0 -1 6766 -1338.8899)">
			<stop  offset="1.000000e-02" style="stop-color:#FFCA30"/>
			<stop  offset="0.97" style="stop-color:#FF9E2B"/>
		</linearGradient>
		<path style="fill:url(#SVGID_00000001630595351530367990000016368762906063399556_);" d="M213.2,298h-87
			c-19.6,0-38.9-4.6-56.4-13.5c-17.5-8.9-32.6-21.8-44.1-37.7c-1.4-1.9-2.7-3.8-4-5.8c-12.3-23.2-5.5-74.4,72.5-74.4
			c-0.4,0-0.9,0.1-1.2,0.4c-0.4,0.2-0.6,0.6-0.8,1c-0.2,0.4-0.2,0.8-0.1,1.3c0.1,0.4,0.3,0.8,0.6,1.1L215.3,293
			c0.4,0.4,0.7,0.9,0.8,1.5c0.1,0.6,0.1,1.2-0.2,1.7c-0.2,0.5-0.6,1-1.1,1.3C214.4,297.8,213.8,298,213.2,298z"/>
		
			<linearGradient id="SVGID_00000121247067706622710560000002162545686508048002_" gradientUnits="userSpaceOnUse" x1="-6545.1328" y1="-1289.0157" x2="-6503.1665" y2="-1595.7693" gradientTransform="matrix(1 0 0 -1 6766 -1338.8899)">
			<stop  offset="1.000000e-02" style="stop-color:#FFCA30"/>
			<stop  offset="1" style="stop-color:#FF9E2B"/>
		</linearGradient>
		<path style="fill:url(#SVGID_00000121247067706622710560000002162545686508048002_);" d="M298,126.3v165.5c0,0.5-0.1,1-0.4,1.4
			c-0.3,0.4-0.7,0.8-1.2,1c-0.5,0.2-1,0.2-1.5,0.1c-0.5-0.1-1-0.4-1.3-0.7l-84.4-84.4c-0.2-0.2-0.4-0.5-0.5-0.8
			c-0.1-0.3-0.2-0.6-0.1-1c0-0.3,0.1-0.7,0.3-1c0.2-0.3,0.4-0.5,0.6-0.8c2.7-2,5.3-4.1,7.7-6.4C283.9,138.5,263.5,9.4,173.8,2
			C242.4,2,298,57.6,298,126.3z"/>
		
			<linearGradient id="SVGID_00000183214002670898919170000013409700371097751465_" gradientUnits="userSpaceOnUse" x1="-6767.98" y1="-1387.4678" x2="-6510.2939" y2="-1454.4587" gradientTransform="matrix(1 0 0 -1 6766 -1338.8899)">
			<stop  offset="1.000000e-02" style="stop-color:#FFCA30"/>
			<stop  offset="0.97" style="stop-color:#FF9E2B"/>
		</linearGradient>
		<path style="fill:url(#SVGID_00000183214002670898919170000013409700371097751465_);" d="M217.1,199.2c8.2-7.7,14.8-17,19.2-27.3
			c4.5-10.3,6.8-21.5,6.7-32.7c0-21.8-8.7-42.8-24.1-58.2c-15.4-15.4-36.4-24.1-58.2-24.1H29.4c-7.1-0.3-13.8-3.3-18.7-8.4
			s-7.7-11.9-7.7-19s2.7-13.9,7.7-19C15.6,5.3,22.4,2.3,29.4,2h144.3C263.5,9.4,283.9,138.5,217.1,199.2z"/>
		
			<linearGradient id="SVGID_00000173852547875399174610000015116789366785652892_" gradientUnits="userSpaceOnUse" x1="-6764.4927" y1="-1411.1968" x2="-6620.1035" y2="-1410.6777" gradientTransform="matrix(1 0 0 -1 6766 -1338.8899)">
			<stop  offset="1.000000e-02" style="stop-color:#FFCA30"/>
			<stop  offset="0.67" style="stop-color:#FF9E2B;stop-opacity:0"/>
		</linearGradient>
		<path style="fill:url(#SVGID_00000173852547875399174610000015116789366785652892_);" d="M248,136.7c-1.3-47-39.9-84.7-87.2-84.7
			H29.5c-5.8-0.3-11.3-2.7-15.3-6.9c-4-4.2-6.3-9.8-6.3-15.6c0-5.8,2.2-11.4,6.3-15.6c4-4.2,9.5-6.7,15.3-6.9h144.1
			c33.7,2.9,59.9,24.6,71.7,59.5c7.2,21.1,8.3,45.3,3.2,68.1C248.3,135.2,248.2,136,248,136.7z"/>
		
			<linearGradient id="SVGID_00000119109363439720468510000011719162021128458625_" gradientUnits="userSpaceOnUse" x1="-6685.8545" y1="-1497.8981" x2="-6756.1499" y2="-1559.201" gradientTransform="matrix(1 0 0 -1 6766 -1338.8899)">
			<stop  offset="1.000000e-02" style="stop-color:#FF9E2B"/>
			<stop  offset="0.53" style="stop-color:#FFCA30"/>
			<stop  offset="0.97" style="stop-color:#FFB42B"/>
		</linearGradient>
		<path style="fill:url(#SVGID_00000119109363439720468510000011719162021128458625_);" d="M17.9,229.8c-2-8.5-1.6-17.4,1.2-25.6
			c1.4-4.1,3.4-8.1,5.9-11.6c2.5-3.6,5.5-6.8,8.9-9.6c6.8-5.5,14.6-9.5,23-11.9c8.3-2.4,16.8-3.8,25.5-4c-4.3,0.6-8.5,1.1-12.7,2
			c-2.1,0.4-4.2,0.9-6.2,1.4c-2.1,0.6-4.1,1.1-6.1,1.8c-4,1.3-8,3-11.7,4.9c-3.7,1.9-7.3,4.3-10.6,7c-6.6,5.4-11.6,12.4-14.6,20.3
			c-1.5,4-2.4,8.1-2.8,12.4C17.1,221.2,17.2,225.5,17.9,229.8z"/>
		
			<linearGradient id="SVGID_00000170966397032295185560000003966591656728596905_" gradientUnits="userSpaceOnUse" x1="-6562.2471" y1="-1334.4833" x2="-6504.7871" y2="-1495.8933" gradientTransform="matrix(1 0 0 -1 6766 -1338.8899)">
			<stop  offset="5.000000e-02" style="stop-color:#FF9E2B"/>
			<stop  offset="0.51" style="stop-color:#FFCA30"/>
			<stop  offset="0.97" style="stop-color:#FF9E2B"/>
		</linearGradient>
		<path style="fill:url(#SVGID_00000170966397032295185560000003966591656728596905_);" d="M242,166.7
			c13.1-27.6,16.7-58.8,10.3-88.7c-3.2-14.8-9.2-29-18-41.2c-4.4-6.2-9.6-11.7-15.4-16.5c-5.8-4.9-12.3-8.9-19.3-12
			c7.2,2.7,13.9,6.5,20,11.1c6.1,4.7,11.5,10.2,16.2,16.4c4.6,6.2,8.5,12.8,11.6,19.9c3.1,7.1,5.5,14.4,7.2,21.9
			c3.2,15.1,3.8,30.6,1.7,45.8c-1.1,7.6-2.8,15.1-5.1,22.4C248.8,152.9,245.7,160,242,166.7z"/>
	</g>
</g>
</svg>
